<svg width="96" height="96" viewBox="0 0 96 96" fill="none" xmlns="http://www.w3.org/2000/svg">
<path fill-rule="evenodd" clip-rule="evenodd" d="M9.73584 86.606L15.1238 66.936C11.7998 61.18 10.0518 54.648 10.0538 47.958C10.0638 27.028 27.0958 10 48.0278 10C58.1858 10.004 67.7178 13.958 74.8878 21.132C82.0558 28.308 86.0038 37.844 85.9998 47.988C85.9918 68.918 68.9558 85.948 48.0278 85.948H48.0118C41.6578 85.946 35.4118 84.352 29.8658 81.326L9.73584 86.606Z" fill="white"/>
<path fill-rule="evenodd" clip-rule="evenodd" d="M9.73594 87.606C9.47194 87.606 9.21594 87.502 9.02594 87.31C8.77594 87.056 8.67794 86.686 8.77194 86.344L14.0499 67.072C10.7779 61.26 9.05194 54.66 9.05594 47.96C9.06394 26.476 26.5459 9 48.0279 9C58.4479 9.004 68.2379 13.062 75.5959 20.426C82.9539 27.792 87.0039 37.58 86.9999 47.988C86.9919 69.47 69.5079 86.948 48.0279 86.948C41.6499 86.946 35.3399 85.372 29.7399 82.394L9.98994 87.572C9.90594 87.596 9.82194 87.606 9.73594 87.606Z" fill="#00989A"/>
<path fill-rule="evenodd" clip-rule="evenodd" d="M48.0282 10C58.1862 10.004 67.7182 13.958 74.8882 21.132C82.0562 28.308 86.0042 37.844 86.0002 47.988C85.9922 68.918 68.9562 85.948 48.0282 85.948H48.0122C41.6582 85.946 35.4122 84.352 29.8662 81.326L9.73617 86.606L15.1242 66.936C11.8002 61.18 10.0522 54.648 10.0542 47.958C10.0642 27.028 27.0962 10 48.0282 10ZM48.0282 8C25.9962 8 8.06417 25.924 8.05417 47.958C8.05217 54.692 9.75217 61.328 12.9762 67.202L7.80617 86.08C7.61817 86.77 7.81017 87.506 8.31417 88.014C8.69417 88.398 9.20817 88.608 9.73617 88.608C9.90617 88.608 10.0762 88.586 10.2442 88.542L29.6182 83.462C35.2742 86.398 41.6142 87.948 48.0122 87.95C70.0602 87.95 87.9922 70.024 88.0022 47.99C88.0062 37.312 83.8522 27.272 76.3062 19.72C68.7562 12.166 58.7142 8.004 48.0282 8Z" fill="#CFD8DC"/>
<path fill-rule="evenodd" clip-rule="evenodd" d="M70.3519 25.6641C64.3919 19.7001 56.4699 16.4141 48.0379 16.4121C30.6299 16.4121 16.4719 30.5641 16.4639 47.9601C16.4619 53.9221 18.1299 59.7261 21.2899 64.7521L22.0419 65.9461L18.8519 77.5881L30.7979 74.4561L31.9519 75.1401C36.7959 78.0161 42.3519 79.5361 48.0159 79.5381H48.0279C65.4239 79.5381 79.5819 65.3841 79.5879 47.9861C79.5899 39.5561 76.3119 31.6281 70.3519 25.6641Z" fill="white"/>
<path fill-rule="evenodd" clip-rule="evenodd" d="M38.536 32.0898C37.826 30.5098 37.078 30.4778 36.4 30.4498C35.846 30.4258 35.214 30.4278 34.582 30.4278C33.95 30.4278 32.922 30.6658 32.052 31.6158C31.182 32.5658 28.73 34.8598 28.73 39.5278C28.73 44.1958 32.13 48.7078 32.604 49.3398C33.078 49.9718 39.168 59.8578 48.812 63.6618C56.826 66.8218 58.458 66.1938 60.198 66.0358C61.938 65.8778 65.812 63.7418 66.602 61.5258C67.392 59.3098 67.392 57.4118 67.156 57.0158C66.918 56.6198 66.286 56.3838 65.338 55.9078C64.39 55.4318 59.724 53.1378 58.854 52.8218C57.984 52.5058 57.352 52.3478 56.718 53.2978C56.086 54.2458 54.268 56.3838 53.714 57.0158C53.16 57.6498 52.606 57.7298 51.658 57.2538C50.71 56.7778 47.654 55.7778 44.028 52.5458C41.208 50.0318 39.304 46.9258 38.75 45.9758C38.196 45.0278 38.69 44.5138 39.166 44.0398C39.592 43.6138 40.114 42.9318 40.59 42.3778C41.064 41.8238 41.222 41.4278 41.538 40.7958C41.854 40.1618 41.696 39.6078 41.458 39.1338C41.224 38.6578 39.38 33.9658 38.536 32.0898Z" fill="#00989A"/>
</svg>
