<svg width="52" height="46" viewBox="0 0 52 46" fill="none" xmlns="http://www.w3.org/2000/svg">
<path d="M48.6132 39.3619L47.339 37.1548L47.2951 37.0822L44.9878 33.0863L42.6341 29.0148L40.2829 24.9434L39.001 22.7236L26.0015 0.225098L13.0019 22.7236L11.72 24.9434L9.36634 29.0148L7.01512 33.0863L4.70536 37.0822L4.6639 37.1548L2.89122 40.2227L0 45.2251H52L48.6132 39.3619ZM40.2229 41.1536L37.8585 37.1548L37.8171 37.0822L35.4527 33.0863H25.9712L23.6088 37.0822H33.1302L33.1741 37.1548L35.5385 41.1536H16.4634L18.8278 37.1548L18.8717 37.0822L20.0293 35.1218L21.2337 33.0863L23.6395 29.0148L26.001 25.016L28.3624 29.0148H33.0468L30.641 24.9434L26.0005 17.0885L21.3576 24.9434L18.9517 29.0148L17.6854 31.1571L16.5459 33.0863L14.1815 37.0822L14.14 37.1548L11.7756 41.1536H7.03659L9.34634 37.1548L9.39024 37.0822L11.6976 33.0863L14.0488 29.0148L15.341 26.7795L16.4024 24.9434L25.9995 8.33633L35.5941 24.9434L36.6556 26.7795L37.9478 29.0148L40.299 33.0863L42.6088 37.0822L42.6502 37.1548L44.96 41.1536H40.221H40.2229Z" fill="#03989A"/>
</svg>
