<svg width="262" height="51" viewBox="0 0 262 51" fill="none" xmlns="http://www.w3.org/2000/svg">
<path d="M54.2155 43.6811L52.7945 41.2177L52.7455 41.1367L50.1723 36.6768L47.5474 32.1326L44.9252 27.5884L43.4956 25.1109L28.9979 0L14.5003 25.1109L13.0706 27.5884L10.4457 32.1326L7.82356 36.6768L5.24762 41.1367L5.20138 41.2177L3.22441 44.6418L0 50.2251H57.9926L54.2155 43.6811ZM44.8583 45.6809L42.2215 41.2177L42.1752 41.1367L39.5384 36.6768H28.9642L26.3295 41.1367H36.9483L36.9972 41.2177L39.6341 45.6809H18.3607L20.9976 41.2177L21.0465 41.1367L22.3375 38.9486L23.6807 36.6768L26.3638 32.1326L28.9974 27.6694L31.631 32.1326H36.8552L34.1721 27.5884L28.9969 18.8215L23.8189 27.5884L21.1358 32.1326L19.7235 34.5236L18.4526 36.6768L15.8158 41.1367L15.7695 41.2177L13.1327 45.6809H7.8475L10.4234 41.2177L10.4724 41.1367L13.0456 36.6768L15.6678 32.1326L17.1089 29.6377L18.2927 27.5884L28.9958 9.05305L39.6961 27.5884L40.8799 29.6377L42.321 32.1326L44.9432 36.6768L47.5191 41.1367L47.5654 41.2177L50.1413 45.6809H44.8562H44.8583Z" fill="#03989A"/>
<path d="M101.261 24.2771C101.329 24.2946 101.248 24.6988 101.171 24.6988H93.1541C93.0947 24.6988 93.0434 24.3155 93.1285 24.2899C93.2135 24.2643 93.3649 24.2177 93.5816 24.1489C93.7994 24.0802 94.0068 23.9684 94.2072 23.8111C94.4075 23.6539 94.5625 23.443 94.6731 23.1798C94.7838 22.9165 94.771 22.5798 94.6347 22.171C94.5927 22.0603 93.3917 18.4258 93.3836 18.392C93.358 18.3152 93.3114 18.2779 93.2426 18.2779H87.7408C87.664 18.2779 87.6139 18.3117 87.5871 18.3792C87.5533 18.4817 86.2929 22.6218 86.2847 22.6812C86.216 22.9957 86.2311 23.252 86.3302 23.4477C86.428 23.6434 86.562 23.7983 86.732 23.9136C86.9021 24.029 87.085 24.1117 87.2807 24.1629C87.4764 24.2142 87.6383 24.2573 87.7653 24.2911C87.8422 24.3085 87.7746 24.6999 87.7152 24.6999H82.9916C82.9228 24.6999 82.8856 24.3214 82.9531 24.3039C83.1745 24.2445 83.3911 24.1722 83.6043 24.0872C83.8163 24.0022 84.0144 23.8938 84.1972 23.7622C84.3801 23.6306 84.5467 23.471 84.6958 23.2834C84.8449 23.097 84.9696 22.8745 85.0721 22.6194C85.1233 22.4913 90.1568 8.06644 90.1661 8.04082C90.1999 7.94763 90.2407 7.87306 90.2931 7.82413C90.4131 7.71231 93.2054 6.99241 93.4209 6.90505C93.6399 6.81535 93.8507 6.9563 93.8938 7.05881C93.902 7.08443 98.7922 21.7691 98.8597 21.9566C98.9867 22.3224 99.1381 22.6392 99.3129 22.9072C99.4876 23.1751 99.6787 23.4046 99.8872 23.5968C100.096 23.7878 100.315 23.9393 100.545 24.0499C100.775 24.1606 101.014 24.2375 101.259 24.2794L101.261 24.2771ZM87.9459 17.2819C87.9028 17.3926 87.9365 17.4473 88.0472 17.4473H92.9106C93.0131 17.4473 93.0469 17.3972 93.0131 17.2947C93.0038 17.2691 90.5366 9.83475 90.5366 9.82659C90.5191 9.76718 90.3362 9.78815 90.3199 9.8394C90.3106 9.85688 88.0391 16.993 87.9459 17.2819Z" fill="black"/>
<path d="M115.677 11.844C115.599 11.8568 115.475 11.8859 115.305 11.9325C115.135 11.9791 114.963 12.0548 114.79 12.1632C114.616 12.2715 114.465 12.4218 114.333 12.6152C114.201 12.8085 114.137 13.0555 114.137 13.356V24.6625C114.137 24.7615 113.869 24.8757 113.784 24.7906C113.765 24.7708 104.908 14.2553 104.902 14.2495C104.857 14.2029 104.736 14.2588 104.736 14.3182V22.9547C104.736 23.2623 104.801 23.5104 104.931 23.7003C105.062 23.8902 105.214 24.0404 105.388 24.1523C105.561 24.2629 105.733 24.341 105.903 24.3829C106.073 24.4248 106.198 24.4528 106.276 24.4668C106.334 24.4796 106.312 24.7813 106.246 24.7813H102.516C102.451 24.7813 102.428 24.4808 102.487 24.4668C102.565 24.454 102.69 24.426 102.86 24.3829C103.03 24.341 103.201 24.2629 103.375 24.1523C103.549 24.0404 103.7 23.8902 103.832 23.7003C103.962 23.5104 104.028 23.2623 104.028 22.9547V13.356C104.028 13.0555 103.963 12.8085 103.832 12.6152C103.701 12.4218 103.549 12.2715 103.375 12.1632C103.201 12.0548 103.03 11.9791 102.86 11.9325C102.69 11.8871 102.565 11.858 102.487 11.844C102.428 11.837 102.451 11.5295 102.516 11.5295H106.413C106.616 11.5295 106.776 11.5982 106.894 11.7357C107.019 11.8859 113.24 19.2702 113.254 19.283C113.307 19.3354 113.431 19.29 113.431 19.2248V13.3549C113.431 13.0543 113.366 12.8074 113.235 12.614C113.104 12.4206 112.952 12.2704 112.778 12.162C112.604 12.0537 112.433 11.978 112.263 11.9314C112.093 11.8859 111.968 11.8568 111.89 11.8428C111.832 11.8358 111.854 11.5283 111.921 11.5283H115.651C115.716 11.5283 115.739 11.8358 115.68 11.8428L115.677 11.844Z" fill="black"/>
<path d="M128.543 11.717V14.4451C128.543 14.55 128.268 14.5791 128.228 14.4743C128.202 14.416 128.156 14.3158 128.091 14.1749C128.025 14.0339 127.933 13.8755 127.816 13.6984C127.698 13.5214 127.554 13.3396 127.384 13.1533C127.213 12.9669 127.014 12.7945 126.785 12.6372C126.555 12.48 126.299 12.3518 126.015 12.2493C125.731 12.148 125.411 12.0967 125.057 12.0967C124.894 12.0967 124.759 12.1212 124.655 12.1701C124.55 12.219 124.467 12.2843 124.405 12.3658C124.343 12.4485 124.299 12.544 124.272 12.6559C124.245 12.7677 124.23 12.8818 124.223 12.9995V22.9523C124.223 23.2599 124.288 23.508 124.419 23.6979C124.549 23.8877 124.702 24.038 124.876 24.1498C125.049 24.2605 125.22 24.3386 125.39 24.3805C125.56 24.4224 125.685 24.4504 125.763 24.4644C125.821 24.4772 125.799 24.7789 125.733 24.7789H119.472C119.406 24.7789 119.383 24.4784 119.442 24.4644C119.52 24.4516 119.645 24.4236 119.815 24.3805C119.985 24.3386 120.158 24.2605 120.331 24.1498C120.505 24.038 120.656 23.8877 120.788 23.6979C120.918 23.508 120.985 23.2599 120.985 22.9523C120.985 22.8999 120.989 13.116 120.98 12.9564C120.97 12.7956 120.939 12.6524 120.887 12.5242C120.834 12.3973 120.751 12.2936 120.636 12.2155C120.522 12.1375 120.359 12.0979 120.151 12.0979C119.798 12.0979 119.476 12.148 119.188 12.2505C118.901 12.3518 118.643 12.4811 118.419 12.6384C118.193 12.7956 117.994 12.9669 117.824 13.1544C117.654 13.3408 117.51 13.5225 117.392 13.6996C117.275 13.8767 117.181 14.0351 117.113 14.176C117.044 14.317 117 14.416 116.981 14.4754C116.941 14.5803 116.667 14.5511 116.667 14.4463V11.7181C116.667 11.5935 116.735 11.5317 116.873 11.5317H128.336C128.474 11.5317 128.543 11.5935 128.543 11.7181V11.717Z" fill="black"/>
<path d="M135.832 11.2556C136.493 11.2556 137.121 11.3359 137.717 11.4955C138.313 11.6563 138.864 11.8834 139.371 12.177C139.878 12.4717 140.335 12.827 140.74 13.2417C141.146 13.6576 141.489 14.1165 141.771 14.6209C142.053 15.1253 142.27 15.6693 142.423 16.2553C142.577 16.8412 142.654 17.4516 142.654 18.0865C142.654 18.7214 142.57 19.3341 142.404 19.927C142.237 20.5188 142.001 21.0721 141.697 21.5858C141.392 22.0995 141.024 22.5702 140.592 22.9988C140.16 23.4275 139.681 23.7945 139.155 24.0985C138.627 24.4025 138.061 24.6378 137.452 24.8056C136.842 24.9722 136.205 25.056 135.538 25.056C134.537 25.056 133.619 24.879 132.785 24.526C131.951 24.173 131.232 23.6885 130.631 23.0734C130.029 22.4583 129.56 21.7373 129.223 20.909C128.886 20.0819 128.717 19.1896 128.717 18.2344C128.717 17.5996 128.801 16.9857 128.968 16.3939C129.134 15.8021 129.37 15.2476 129.675 14.7304C129.979 14.2132 130.347 13.7414 130.779 13.3116C131.211 12.8829 131.69 12.516 132.217 12.2119C132.743 11.9079 133.31 11.6726 133.92 11.5048C134.528 11.3383 135.166 11.2544 135.834 11.2544L135.832 11.2556ZM135.686 24.4759C136.222 24.4759 136.69 24.3105 137.089 23.9808C137.488 23.65 137.821 23.1992 138.085 22.6261C138.351 22.0529 138.548 21.3843 138.679 20.619C138.81 19.8536 138.876 19.0324 138.876 18.1552C138.876 17.2781 138.811 16.465 138.679 15.6961C138.549 14.9273 138.351 14.2563 138.085 13.6844C137.821 13.1124 137.489 12.6604 137.089 12.3296C136.69 11.9988 136.222 11.8333 135.686 11.8333C135.15 11.8333 134.682 11.9988 134.282 12.3296C133.882 12.6604 133.55 13.1112 133.286 13.6844C133.022 14.2563 132.824 14.9273 132.692 15.6961C132.561 16.465 132.496 17.285 132.496 18.1552C132.496 19.0254 132.561 19.8525 132.692 20.619C132.822 21.3843 133.02 22.0529 133.286 22.6261C133.552 23.198 133.882 23.65 134.282 23.9808C134.68 24.3117 135.149 24.4759 135.686 24.4759Z" fill="black"/>
<path d="M155.75 11.844C155.672 11.8568 155.547 11.8859 155.377 11.9325C155.207 11.9791 155.036 12.0548 154.862 12.1632C154.689 12.2715 154.537 12.4218 154.406 12.6152C154.275 12.8085 154.21 13.0555 154.21 13.356V24.6625C154.21 24.7615 153.942 24.8757 153.857 24.7906C153.837 24.7708 153.74 24.6578 153.567 24.4516C153.393 24.2455 144.98 14.2553 144.973 14.2495C144.928 14.2029 144.807 14.2588 144.807 14.3182V22.9547C144.807 23.2623 144.872 23.5104 145.003 23.7003C145.133 23.8902 145.286 24.0404 145.459 24.1523C145.633 24.2629 145.804 24.341 145.974 24.3829C146.144 24.4248 146.269 24.4528 146.347 24.4668C146.405 24.4796 146.383 24.7813 146.318 24.7813H142.588C142.523 24.7813 142.499 24.4808 142.559 24.4668C142.637 24.454 142.761 24.426 142.931 24.3829C143.101 24.3398 143.273 24.2629 143.446 24.1523C143.62 24.0404 143.771 23.8902 143.903 23.7003C144.033 23.5104 144.1 23.2623 144.1 22.9547V13.356C144.1 13.0555 144.035 12.8085 143.903 12.6152C143.772 12.4218 143.62 12.2715 143.446 12.1632C143.273 12.0548 143.101 11.9791 142.931 11.9325C142.761 11.8871 142.637 11.858 142.559 11.844C142.499 11.837 142.523 11.5295 142.588 11.5295H146.484C146.687 11.5295 146.848 11.5982 146.965 11.7357C147.09 11.8859 153.312 19.2702 153.326 19.283C153.378 19.3354 153.503 19.29 153.503 19.2248V13.3549C153.503 13.0543 153.438 12.8074 153.306 12.614C153.174 12.4206 153.023 12.2704 152.849 12.162C152.676 12.0537 152.504 11.978 152.334 11.9314C152.164 11.8859 152.04 11.8568 151.962 11.8428C151.903 11.8358 151.926 11.5283 151.992 11.5283H155.722C155.787 11.5283 155.81 11.8358 155.751 11.8428L155.75 11.844Z" fill="black"/>
<path d="M163.232 24.4671C163.292 24.4799 163.268 24.7816 163.203 24.7816H156.942C156.877 24.7816 156.853 24.4811 156.913 24.4671C156.991 24.4543 157.115 24.4263 157.285 24.3832C157.455 24.3413 157.627 24.2632 157.8 24.1526C157.974 24.0407 158.125 23.8905 158.257 23.7006C158.387 23.5107 158.454 23.2626 158.454 22.955V13.3563C158.454 13.0558 158.389 12.8088 158.257 12.6155C158.126 12.4221 157.974 12.2718 157.8 12.1635C157.627 12.0551 157.455 11.9794 157.285 11.9328C157.115 11.8874 156.991 11.8583 156.913 11.8443C156.853 11.8373 156.877 11.5298 156.942 11.5298H163.203C163.268 11.5298 163.292 11.8373 163.232 11.8443C163.154 11.8571 163.029 11.8862 162.859 11.9328C162.689 11.9794 162.517 12.0551 162.345 12.1635C162.171 12.2718 162.018 12.4221 161.888 12.6155C161.757 12.8088 161.691 13.0558 161.691 13.3563V22.955C161.691 23.2626 161.756 23.5107 161.888 23.7006C162.018 23.8905 162.171 24.0407 162.345 24.1526C162.518 24.2632 162.689 24.3413 162.859 24.3832C163.029 24.4251 163.154 24.4531 163.232 24.4671Z" fill="black"/>
<path d="M170.272 11.2556C170.933 11.2556 171.561 11.3359 172.157 11.4955C172.752 11.6563 173.303 11.8834 173.811 12.177C174.318 12.4717 174.775 12.827 175.18 13.2417C175.585 13.6576 175.929 14.1165 176.211 14.6209C176.493 15.1253 176.71 15.6693 176.863 16.2553C177.017 16.8412 177.094 17.4516 177.094 18.0865C177.094 18.7214 177.01 19.3341 176.844 19.927C176.677 20.5188 176.44 21.0721 176.136 21.5858C175.832 22.0995 175.464 22.5702 175.032 22.9988C174.6 23.4275 174.121 23.7945 173.595 24.0985C173.067 24.4025 172.501 24.6378 171.892 24.8056C171.282 24.9722 170.645 25.056 169.978 25.056C168.977 25.056 168.059 24.879 167.225 24.526C166.391 24.173 165.672 23.6885 165.071 23.0734C164.469 22.4583 163.999 21.7373 163.663 20.909C163.326 20.0819 163.157 19.1896 163.157 18.2344C163.157 17.5996 163.241 16.9857 163.408 16.3939C163.574 15.8021 163.81 15.2476 164.115 14.7304C164.419 14.2132 164.787 13.7414 165.219 13.3116C165.651 12.8829 166.13 12.516 166.657 12.2119C167.183 11.9079 167.75 11.6726 168.36 11.5048C168.968 11.3383 169.606 11.2544 170.274 11.2544L170.272 11.2556ZM170.126 24.4759C170.661 24.4759 171.13 24.3105 171.529 23.9808C171.928 23.65 172.261 23.1992 172.525 22.6261C172.791 22.0529 172.988 21.3843 173.119 20.619C173.25 19.8536 173.316 19.0324 173.316 18.1552C173.316 17.2781 173.251 16.465 173.119 15.6961C172.989 14.9273 172.791 14.2563 172.525 13.6844C172.261 13.1124 171.929 12.6604 171.529 12.3296C171.13 11.9988 170.661 11.8333 170.126 11.8333C169.59 11.8333 169.121 11.9988 168.722 12.3296C168.322 12.6604 167.99 13.1112 167.726 13.6844C167.462 14.2563 167.263 14.9273 167.132 15.6961C167 16.465 166.936 17.285 166.936 18.1552C166.936 19.0254 167.001 19.8525 167.132 20.619C167.262 21.3855 167.46 22.0529 167.726 22.6261C167.992 23.198 168.322 23.65 168.722 23.9808C169.12 24.3117 169.589 24.4759 170.126 24.4759Z" fill="black"/>
<path d="M183.874 16.1828C183.874 15.3569 183.985 14.5589 184.206 13.7889C184.427 13.0189 184.742 12.2979 185.151 11.6257C185.56 10.9536 186.051 10.3385 186.625 9.78055C187.2 9.22373 187.836 8.74612 188.533 8.35122C189.231 7.95516 189.984 7.64879 190.793 7.43212C191.602 7.21428 192.444 7.10596 193.321 7.10596C194.043 7.10596 194.699 7.16303 195.286 7.27836C195.873 7.39252 196.38 7.52066 196.805 7.66161C197.231 7.80256 197.567 7.93419 197.814 8.0565C198.061 8.17998 198.197 8.25454 198.223 8.28016C198.324 8.35705 198.376 8.44558 198.376 8.54809V11.2297C198.376 11.2891 198.005 11.3438 197.981 11.2937C197.819 10.9117 197.618 10.5156 197.381 10.1067C197.142 9.69784 196.84 9.3274 196.475 8.99658C196.109 8.66458 195.674 8.39199 195.172 8.17882C194.67 7.96564 194.078 7.85964 193.398 7.85964C192.572 7.85964 191.869 8.07398 191.285 8.50499C190.701 8.93484 190.225 9.52194 189.854 10.2663C189.484 11.0107 189.214 11.8832 189.044 12.8838C188.874 13.8833 188.789 14.9503 188.789 16.0814C188.789 17.2126 188.874 18.2901 189.044 19.2861C189.214 20.282 189.471 21.1522 189.816 21.8966C190.161 22.641 190.593 23.2281 191.111 23.6579C191.63 24.0878 192.239 24.3021 192.937 24.3021C193.591 24.3021 194.105 24.1611 194.474 23.8816C194.845 23.6008 195.121 23.2362 195.305 22.7901C195.488 22.3439 195.601 21.8477 195.643 21.3037C195.685 20.7585 195.707 20.2226 195.707 19.6949V18.6861C195.707 18.3029 195.622 17.9884 195.452 17.7414C195.282 17.4945 195.084 17.2964 194.858 17.1473C194.632 16.9982 194.408 16.8946 194.188 16.8351C193.967 16.7757 193.805 16.7373 193.702 16.7198C193.625 16.7116 193.656 16.3109 193.741 16.3109H199.51C199.637 16.3109 199.919 16.5882 199.919 16.7058V23.2036C199.919 23.3399 199.894 23.4377 199.842 23.4972C199.791 23.5566 199.719 23.6032 199.624 23.6381C198.97 23.8338 198.371 24.0167 197.83 24.1868C197.29 24.3568 196.758 24.506 196.235 24.6329C195.712 24.7611 195.171 24.8624 194.613 24.9393C194.055 25.0162 193.432 25.0534 192.743 25.0534C191.441 25.0534 190.248 24.824 189.163 24.3638C188.077 23.9049 187.144 23.2747 186.361 22.4744C185.578 21.6741 184.967 20.7364 184.529 19.6588C184.091 18.5825 183.872 17.4222 183.872 16.1805L183.874 16.1828Z" fill="black"/>
<path d="M214.012 24.4048C214.065 24.4176 214.003 24.7275 213.943 24.7275H207.797C207.752 24.7275 207.712 24.4339 207.778 24.4141C207.843 24.3943 207.958 24.3582 208.125 24.307C208.291 24.2545 208.451 24.1683 208.605 24.0472C208.757 23.926 208.877 23.7653 208.961 23.5626C209.045 23.3599 209.037 23.1025 208.932 22.7891C208.899 22.7041 207.979 19.9188 207.973 19.892C207.953 19.8338 207.917 19.8047 207.866 19.8047H203.648C203.59 19.8047 203.55 19.8303 203.53 19.8827C203.505 19.9608 202.539 23.1351 202.532 23.1805C202.48 23.4217 202.491 23.6173 202.567 23.7676C202.642 23.9179 202.745 24.0367 202.876 24.1241C203.006 24.2126 203.146 24.2755 203.296 24.3151C203.447 24.3547 203.57 24.3873 203.668 24.413C203.727 24.4258 203.675 24.7263 203.629 24.7263H200.009C199.956 24.7263 199.927 24.4363 199.98 24.4223C200.149 24.3769 200.315 24.3209 200.478 24.2557C200.641 24.1905 200.793 24.1078 200.933 24.0064C201.074 23.9051 201.201 23.7828 201.315 23.6395C201.429 23.4962 201.524 23.3261 201.604 23.1304C201.643 23.0326 205.501 11.9743 205.508 11.9545C205.534 11.8834 205.567 11.8275 205.606 11.7879C205.646 11.7483 208.195 11.0179 208.244 11.0447C208.292 11.0703 208.333 11.1227 208.366 11.2008C208.372 11.2206 212.386 23.1444 212.52 23.3494C212.654 23.5544 212.801 23.7315 212.96 23.8783C213.12 24.0251 213.288 24.1416 213.465 24.2254C213.64 24.3105 213.823 24.3687 214.012 24.4013V24.4048ZM203.805 19.0417C203.773 19.1267 203.798 19.1686 203.883 19.1686H207.612C207.69 19.1686 207.717 19.1302 207.69 19.051C207.683 19.0312 205.791 13.3325 205.791 13.3267C205.779 13.2813 205.751 13.2615 205.709 13.2673C205.666 13.2743 205.639 13.2964 205.626 13.336C205.619 13.35 203.878 18.8203 203.806 19.0417H203.805Z" fill="black"/>
<path d="M221.43 24.4141C221.49 24.4269 221.466 24.7275 221.401 24.7275H215.159C215.093 24.7275 215.07 24.4269 215.129 24.4141C215.207 24.4013 215.331 24.3733 215.501 24.3314C215.671 24.2895 215.842 24.2126 216.015 24.1019C216.187 23.9912 216.34 23.841 216.47 23.6511C216.601 23.4624 216.666 23.2143 216.666 22.9079V13.3371C216.666 13.0366 216.601 12.7908 216.47 12.5986C216.34 12.4064 216.188 12.2561 216.015 12.1478C215.841 12.0394 215.671 11.9637 215.501 11.9183C215.331 11.8729 215.207 11.8437 215.129 11.8309C215.07 11.8239 215.093 11.5176 215.159 11.5176H221.401C221.466 11.5176 221.49 11.8239 221.43 11.8309C221.352 11.8437 221.228 11.8729 221.059 11.9183C220.889 11.9637 220.717 12.0406 220.545 12.1478C220.373 12.2549 220.22 12.4064 220.09 12.5986C219.959 12.7908 219.894 13.0366 219.894 13.3371V22.9079C219.894 23.2143 219.959 23.4624 220.09 23.6511C220.22 23.8398 220.371 23.9901 220.545 24.1019C220.717 24.2126 220.889 24.2895 221.059 24.3314C221.228 24.3733 221.352 24.4013 221.43 24.4141Z" fill="black"/>
<path d="M234.258 11.7027V14.4227C234.258 14.5275 233.984 14.5567 233.944 14.4518C233.919 14.3936 233.872 14.2934 233.807 14.1536C233.742 14.0138 233.65 13.8554 233.533 13.6795C233.416 13.5036 233.272 13.3219 233.102 13.1367C232.933 12.9503 232.734 12.779 232.506 12.623C232.277 12.4669 232.021 12.3375 231.738 12.2362C231.454 12.1349 231.136 12.0848 230.784 12.0848C230.621 12.0848 230.487 12.1092 230.383 12.1582C230.278 12.2071 230.196 12.2723 230.134 12.3539C230.072 12.4354 230.028 12.5321 230.002 12.6427C229.977 12.7534 229.96 12.8676 229.953 12.9852V22.9078C229.953 23.2142 230.019 23.4623 230.149 23.651C230.28 23.8397 230.431 23.99 230.605 24.1018C230.777 24.2125 230.948 24.2893 231.118 24.3313C231.287 24.3732 231.412 24.4012 231.49 24.414C231.548 24.4268 231.526 24.7274 231.461 24.7274H225.218C225.153 24.7274 225.13 24.4268 225.189 24.414C225.267 24.4012 225.392 24.3732 225.561 24.3313C225.731 24.2893 225.902 24.2125 226.074 24.1018C226.247 23.9911 226.398 23.8409 226.529 23.651C226.659 23.4611 226.724 23.2142 226.724 22.9078C226.724 22.8554 226.729 13.1006 226.72 12.941C226.71 12.7814 226.679 12.6381 226.627 12.51C226.574 12.383 226.49 12.2805 226.377 12.2013C226.263 12.1232 226.101 12.0836 225.893 12.0836C225.541 12.0836 225.221 12.1337 224.934 12.235C224.646 12.3364 224.391 12.4645 224.166 12.6218C223.941 12.779 223.743 12.9503 223.575 13.1355C223.404 13.3207 223.261 13.5024 223.144 13.6783C223.026 13.8542 222.933 14.0127 222.864 14.1525C222.795 14.2934 222.752 14.3924 222.732 14.4507C222.693 14.5555 222.419 14.5264 222.419 14.4215V11.7015C222.419 11.578 222.488 11.5151 222.625 11.5151H234.055C234.193 11.5151 234.26 11.5769 234.26 11.7015L234.258 11.7027Z" fill="black"/>
<path d="M247.152 24.727H241.006C240.96 24.727 240.921 24.4335 240.986 24.4137C241.051 24.3938 241.167 24.3577 241.333 24.3065C241.5 24.2541 241.659 24.1679 241.813 24.0467C241.966 23.9256 242.086 23.7648 242.17 23.5621C242.255 23.3594 242.245 23.102 242.141 22.7886C242.108 22.7036 241.188 19.9183 241.182 19.8915C241.162 19.8333 241.126 19.8042 241.075 19.8042H236.857C236.798 19.8042 236.759 19.8298 236.739 19.8822C236.713 19.9603 235.748 23.1346 235.741 23.18C235.688 23.4212 235.7 23.6169 235.776 23.7671C235.85 23.9174 235.954 24.0362 236.084 24.1236C236.215 24.2121 236.354 24.275 236.505 24.3146C236.655 24.3542 236.778 24.3869 236.876 24.4125C236.936 24.4253 236.883 24.7258 236.838 24.7258H233.217C233.165 24.7258 233.136 24.4358 233.188 24.4218C233.357 24.3764 233.524 24.3205 233.687 24.2552C233.85 24.19 234.001 24.1073 234.141 24.0059C234.282 23.9046 234.409 23.7823 234.523 23.639C234.637 23.4957 234.733 23.3256 234.812 23.1299C234.852 23.0321 238.71 11.9738 238.717 11.954C238.743 11.8829 238.777 11.8293 238.815 11.7874C238.897 11.6954 241.403 11.0174 241.452 11.0442C241.501 11.0698 241.542 11.1222 241.574 11.2003C241.58 11.2201 245.329 22.4764 245.381 22.6209C245.479 22.9016 245.594 23.1439 245.728 23.3501C245.862 23.5551 246.009 23.7322 246.169 23.879C246.328 24.0257 246.496 24.1422 246.673 24.2261C246.849 24.3111 247.032 24.3694 247.221 24.402C247.273 24.4148 247.211 24.7247 247.152 24.7247V24.727ZM237.092 19.1681H240.821C240.899 19.1681 240.926 19.1297 240.899 19.0505C240.892 19.0307 240.861 18.934 240.806 18.7616C240.75 18.5892 239 13.332 239 13.3262C238.987 13.2808 238.959 13.261 238.917 13.2668C238.874 13.2738 238.847 13.2959 238.835 13.3355C238.828 13.3495 237.086 18.8198 237.015 19.0412C236.982 19.1262 237.008 19.1681 237.093 19.1681H237.092ZM238.775 11.0267C238.808 11.0663 238.86 11.0686 238.932 11.036C239.193 10.9184 239.493 10.7669 239.833 10.5806C240.172 10.3942 240.506 10.1891 240.836 9.96432C241.165 9.7395 241.471 9.5042 241.75 9.25957C242.031 9.01494 242.243 8.77847 242.386 8.55015C242.452 8.44648 242.507 8.32532 242.553 8.18786C242.598 8.0504 242.619 7.91878 242.616 7.79181C242.612 7.66484 242.58 7.54601 242.518 7.43418C242.456 7.32351 242.356 7.23848 242.22 7.18024C242.089 7.12083 241.963 7.09637 241.843 7.10685C241.723 7.11734 241.609 7.14761 241.501 7.20003C241.394 7.25245 241.294 7.32235 241.202 7.41089C241.111 7.49825 241.029 7.59145 240.957 7.6893C240.944 7.70328 240.887 7.78248 240.786 7.92926C240.684 8.07603 240.561 8.25776 240.414 8.4721C240.267 8.68761 240.108 8.92291 239.934 9.17685C239.762 9.4308 239.596 9.67426 239.44 9.90608C239.283 10.1379 239.146 10.3417 239.024 10.5176C238.903 10.6935 238.824 10.8112 238.784 10.8694C238.745 10.9347 238.743 10.9871 238.775 11.0267Z" fill="black"/>
<path d="M261.49 11.8298C261.412 11.8426 261.287 11.8717 261.118 11.9171C260.948 11.9626 260.777 12.0395 260.604 12.1466C260.432 12.2538 260.279 12.4052 260.149 12.5974C260.018 12.7896 259.953 13.0354 259.953 13.336V24.6098C259.953 24.7077 259.685 24.8218 259.601 24.7368C259.581 24.717 259.485 24.6051 259.312 24.399C259.14 24.1928 250.752 14.2329 250.745 14.2271C250.699 14.1817 250.66 14.1665 250.627 14.1829C250.594 14.1992 250.578 14.2364 250.578 14.2958V22.9079C250.578 23.2143 250.643 23.4624 250.774 23.6511C250.904 23.8398 251.056 23.9901 251.229 24.1019C251.402 24.2126 251.574 24.2895 251.743 24.3314C251.913 24.3733 252.036 24.4013 252.114 24.4141C252.173 24.4269 252.151 24.7275 252.085 24.7275H248.367C248.302 24.7275 248.279 24.4269 248.338 24.4141C248.416 24.4013 248.539 24.3733 248.71 24.3314C248.88 24.2895 249.051 24.2126 249.223 24.1019C249.396 23.9912 249.548 23.841 249.679 23.6511C249.809 23.4624 249.874 23.2143 249.874 22.9079V13.3371C249.874 13.0366 249.809 12.7908 249.679 12.5986C249.548 12.4064 249.397 12.2561 249.223 12.1478C249.051 12.0406 248.88 11.9637 248.71 11.9183C248.539 11.8729 248.416 11.8437 248.338 11.8309C248.279 11.8239 248.302 11.5176 248.367 11.5176H252.252C252.455 11.5176 252.614 11.5863 252.732 11.7238C252.855 11.874 258.654 18.7562 258.814 18.9461C258.973 19.1348 259.06 19.2362 259.074 19.249C259.126 19.3014 259.251 19.256 259.251 19.1907V13.3383C259.251 13.0378 259.185 12.792 259.055 12.5998C258.924 12.4075 258.773 12.2573 258.599 12.1489C258.426 12.0406 258.256 11.9649 258.086 11.9195C257.916 11.874 257.792 11.8449 257.714 11.8321C257.656 11.8251 257.678 11.5187 257.743 11.5187H261.462C261.527 11.5187 261.549 11.8251 261.491 11.8321L261.49 11.8298Z" fill="black"/>
<path d="M139.449 36.3517H135.165L133.44 41.0929H132.698L137.307 28.4316L141.91 41.0929H141.175L139.451 36.3517H139.449ZM139.194 35.6551L137.307 30.4655L135.42 35.6551H139.194Z" fill="#00989A"/>
<path d="M143.456 28.7173H144.151V34.565C144.28 34.3903 144.427 34.2191 144.593 34.0548C145.423 33.2254 146.423 32.8096 147.593 32.8096C148.764 32.8096 149.77 33.2242 150.598 34.0548C151.425 34.8854 151.839 35.8884 151.839 37.0637C151.839 38.2391 151.426 39.2351 150.598 40.0645C149.77 40.8951 148.769 41.3098 147.593 41.3098C146.418 41.3098 145.423 40.8951 144.593 40.0645C144.427 39.9002 144.28 39.7302 144.151 39.5543V41.0931H143.456V28.7184V28.7173ZM144.151 36.3357V37.7895C144.285 38.45 144.604 39.0324 145.11 39.538C145.796 40.2241 146.623 40.5666 147.592 40.5666C148.561 40.5666 149.39 40.2252 150.074 39.5415C150.761 38.8588 151.103 38.0318 151.103 37.0626C151.103 36.0934 150.761 35.2663 150.074 34.5802C149.388 33.8941 148.561 33.5516 147.592 33.5516C146.623 33.5516 145.795 33.8952 145.11 34.5802C144.604 35.0857 144.285 35.6705 144.151 36.3357Z" fill="#00989A"/>
<path d="M157.749 32.8096C158.924 32.8096 159.926 33.2243 160.753 34.0548C161.58 34.8854 161.995 35.8884 161.995 37.0637C161.995 38.2391 161.581 39.2351 160.753 40.0645C159.926 40.8951 158.924 41.3098 157.749 41.3098C156.574 41.3098 155.578 40.8951 154.748 40.0645C153.918 39.2351 153.503 38.2345 153.503 37.0637C153.503 35.893 153.918 34.8854 154.748 34.0548C155.579 33.2254 156.578 32.8096 157.749 32.8096ZM155.267 34.5802C154.58 35.2663 154.238 36.0934 154.238 37.0626C154.238 38.0318 154.58 38.8588 155.267 39.5415C155.953 40.2241 156.78 40.5666 157.749 40.5666C158.718 40.5666 159.546 40.2253 160.231 39.5415C160.917 38.8588 161.26 38.0318 161.26 37.0626C161.26 36.0934 160.917 35.2663 160.231 34.5802C159.545 33.8941 158.718 33.5516 157.749 33.5516C156.78 33.5516 155.952 33.8952 155.267 34.5802Z" fill="#00989A"/>
<path d="M171.33 39.5842C171.201 39.7497 171.062 39.9092 170.913 40.0642C170.083 40.8947 169.08 41.3095 167.904 41.3095C166.729 41.3095 165.733 40.8947 164.903 40.0642C164.073 39.2348 163.658 38.2341 163.658 37.0634C163.658 35.8927 164.073 34.8862 164.903 34.0592C165.733 33.2321 166.734 32.8174 167.904 32.8174C169.075 32.8174 170.083 33.2298 170.913 34.0545C171.073 34.2199 171.22 34.3923 171.353 34.5729V33.4977H172.05V39.399C172.05 40.5383 171.645 41.5133 170.836 42.3229C170.006 43.1523 169.006 43.5682 167.836 43.5682C166.665 43.5682 165.657 43.1535 164.827 42.3229C164.657 42.1528 164.334 41.7987 164.214 41.5261H165.105C165.182 41.6193 165.265 41.709 165.353 41.7964C166.039 42.4825 166.866 42.825 167.836 42.825C168.805 42.825 169.625 42.4813 170.311 41.7964C170.935 41.172 171.275 40.4358 171.331 39.5842H171.33ZM171.345 36.3365C171.211 35.6714 170.892 35.0854 170.387 34.581C169.701 33.8949 168.873 33.5524 167.904 33.5524C166.935 33.5524 166.107 33.8961 165.422 34.581C164.736 35.2672 164.393 36.0942 164.393 37.0634C164.393 38.0326 164.736 38.8608 165.422 39.5458C166.108 40.2319 166.935 40.5744 167.904 40.5744C168.873 40.5744 169.702 40.2308 170.387 39.5458C170.886 39.0461 171.207 38.4659 171.345 37.8054V36.3365Z" fill="#00989A"/>
<path d="M182.483 41.0931H181.786V39.5461C181.652 39.7267 181.505 39.8991 181.346 40.0645C180.515 40.8951 179.512 41.3098 178.337 41.3098C177.161 41.3098 176.165 40.8951 175.336 40.0645C174.506 39.2351 174.091 38.2345 174.091 37.0637C174.091 35.893 174.506 34.8854 175.336 34.0548C176.165 33.2254 177.166 32.8096 178.337 32.8096C179.508 32.8096 180.515 33.2243 181.346 34.0548C181.505 34.2202 181.652 34.3926 181.786 34.5732V33.498H182.483V41.0931ZM181.786 37.7522V36.3753C181.657 35.695 181.335 35.0962 180.819 34.5814C180.133 33.8952 179.306 33.5528 178.337 33.5528C177.368 33.5528 176.539 33.8964 175.854 34.5814C175.168 35.2675 174.826 36.0946 174.826 37.0637C174.826 38.0329 175.168 38.86 175.854 39.5426C176.541 40.2253 177.368 40.5678 178.337 40.5678C179.306 40.5678 180.134 40.2253 180.819 39.5391C181.335 39.0231 181.657 38.4278 181.786 37.7522Z" fill="#00989A"/>
<path d="M193.002 41.0934H192.305V39.5464C192.171 39.727 192.024 39.8994 191.865 40.0648C191.034 40.8954 190.031 41.3101 188.856 41.3101C187.681 41.3101 186.685 40.8954 185.855 40.0648C185.025 39.2354 184.61 38.2348 184.61 37.064C184.61 35.8933 185.025 34.8857 185.855 34.0551C186.685 33.2257 187.685 32.8099 188.856 32.8099C190.027 32.8099 191.034 33.2246 191.865 34.0551C192.024 34.2205 192.171 34.3929 192.305 34.5735V28.7188H193.002V41.0934ZM192.305 37.7525V36.3756C192.176 35.6953 191.854 35.0965 191.338 34.5817C190.652 33.8955 189.825 33.5531 188.856 33.5531C187.887 33.5531 187.058 33.8967 186.373 34.5817C185.687 35.2678 185.345 36.0949 185.345 37.064C185.345 38.0332 185.687 38.8603 186.373 39.5429C187.06 40.2256 187.887 40.568 188.856 40.568C189.825 40.568 190.653 40.2256 191.338 39.5394C191.854 39.0234 192.176 38.4281 192.305 37.7525Z" fill="#00989A"/>
<path d="M199.103 32.8096C200.279 32.8096 201.281 33.2243 202.108 34.0548C202.935 34.8854 203.349 35.8884 203.349 37.0637C203.349 38.2391 202.936 39.2351 202.108 40.0645C201.281 40.8951 200.279 41.3098 199.103 41.3098C197.928 41.3098 196.932 40.8951 196.103 40.0645C195.272 39.2351 194.857 38.2345 194.857 37.0637C194.857 35.893 195.272 34.8854 196.103 34.0548C196.933 33.2254 197.933 32.8096 199.103 32.8096ZM196.621 34.5802C195.935 35.2663 195.592 36.0934 195.592 37.0626C195.592 38.0318 195.935 38.8588 196.621 39.5415C197.307 40.2241 198.134 40.5666 199.103 40.5666C200.073 40.5666 200.901 40.2253 201.586 39.5415C202.272 38.8588 202.614 38.0318 202.614 37.0626C202.614 36.0934 202.272 35.2663 201.586 34.5802C200.9 33.8941 200.073 33.5516 199.103 33.5516C198.134 33.5516 197.306 33.8952 196.621 34.5802Z" fill="#00989A"/>
<path d="M204.703 35.1265C204.703 35.0951 204.703 35.0636 204.709 35.0322C204.753 34.6175 205.064 34.2272 205.177 34.0979C205.181 34.0944 205.183 34.0944 205.183 34.0921C205.196 34.0793 205.209 34.0665 205.22 34.0548C206.047 33.2243 207.05 32.8096 208.227 32.8096C209.403 32.8096 210.394 33.2243 211.223 34.0548C211.406 34.2377 211.566 34.4264 211.708 34.6245L211.704 34.628L211.138 35.0904C211.016 34.911 210.871 34.7386 210.707 34.5779C210.191 34.0618 209.593 33.7415 208.918 33.6157C208.694 33.5749 208.465 33.5528 208.226 33.5528C208.059 33.5528 207.896 33.5621 207.739 33.5842C207.474 33.6157 207.226 33.6786 206.987 33.7694C206.921 33.7916 206.858 33.816 206.799 33.8451C206.736 33.8731 206.673 33.8987 206.614 33.9302C206.223 34.1189 205.786 34.4369 205.576 34.7573C205.559 34.7701 205.55 34.7829 205.541 34.7945C205.494 34.8668 205.459 34.9483 205.446 35.0368C205.443 35.0683 205.44 35.0962 205.44 35.1277C205.44 35.1685 205.444 35.2092 205.453 35.2477C205.491 35.4364 205.616 35.5878 205.783 35.6659C205.789 35.6694 205.798 35.6752 205.805 35.6787C205.946 35.7695 210.758 37.694 210.908 37.7545H210.912V37.758L210.918 37.7615C210.949 37.7743 210.981 37.7895 211.009 37.8023C211.04 37.8174 211.072 37.8372 211.103 37.8594C211.225 37.9374 211.336 38.0353 211.421 38.1331C211.443 38.1588 211.462 38.1797 211.48 38.2053C211.499 38.2275 211.515 38.2496 211.527 38.2717C211.662 38.4791 211.741 38.7272 211.741 38.9916C211.741 39.0231 211.738 39.058 211.736 39.0895C211.691 39.5042 211.38 39.8944 211.267 40.0237C211.264 40.0272 211.264 40.0296 211.261 40.0296L211.224 40.0668C210.394 40.8974 209.398 41.3121 208.228 41.3121C207.059 41.3121 206.049 40.8974 205.221 40.0668C205.039 39.884 204.879 39.6952 204.737 39.4972L204.74 39.4937L205.307 39.0313C205.429 39.2106 205.573 39.3831 205.738 39.5438C206.254 40.0599 206.851 40.3802 207.527 40.506C207.75 40.5468 207.986 40.5689 208.228 40.5689C208.391 40.5689 208.552 40.5596 208.706 40.5375C208.97 40.506 209.218 40.4431 209.457 40.3522C209.52 40.3266 209.583 40.3022 209.646 40.2765C209.709 40.2509 209.768 40.2195 209.831 40.1915C210.221 40.0028 210.658 39.6848 210.869 39.3644C210.884 39.3516 210.895 39.3388 210.904 39.3271C210.95 39.2549 210.982 39.1734 210.998 39.0848C211.002 39.0534 211.004 39.0219 211.004 38.9905C211.004 38.9497 210.998 38.9124 210.991 38.874C210.954 38.6853 210.828 38.5338 210.662 38.4558C210.656 38.4523 210.646 38.4465 210.639 38.443C210.498 38.3521 205.686 36.4277 205.536 36.3671L205.533 36.3636L205.527 36.3602C205.495 36.3473 205.464 36.3322 205.436 36.3194C205.401 36.3007 205.369 36.2844 205.341 36.2623C205.221 36.1843 205.109 36.0864 205.023 35.9886C205.001 35.9629 204.983 35.942 204.964 35.9163C204.945 35.8977 204.933 35.8756 204.917 35.8534C204.899 35.8255 204.883 35.7998 204.871 35.7719C204.843 35.7148 204.814 35.6589 204.793 35.6018C204.736 35.4539 204.704 35.2931 204.704 35.1265H204.703Z" fill="#00989A"/>
</svg>
