<svg width="273" height="156" viewBox="0 0 273 156" fill="none" xmlns="http://www.w3.org/2000/svg">
<path d="M28.0269 126.523C28.1319 126.55 28.0073 127.168 27.8898 127.168H15.6408C15.55 127.168 15.4717 126.582 15.6016 126.543C15.7315 126.504 15.9629 126.433 16.294 126.328C16.6268 126.223 16.9436 126.052 17.2498 125.811C17.5559 125.571 17.7926 125.249 17.9617 124.847C18.1308 124.444 18.1112 123.93 17.903 123.305C17.8389 123.136 16.0039 117.583 15.9914 117.531C15.9523 117.414 15.8811 117.357 15.776 117.357H7.36973C7.25226 117.357 7.17572 117.409 7.13479 117.512C7.08317 117.669 5.15736 123.994 5.1449 124.085C5.03989 124.566 5.06303 124.957 5.21432 125.256C5.36382 125.555 5.56851 125.792 5.82837 125.968C6.08823 126.144 6.36766 126.271 6.66668 126.349C6.9657 126.427 7.2131 126.493 7.40711 126.545C7.52458 126.571 7.42135 127.169 7.33057 127.169H0.113214C0.00820211 127.169 -0.048754 126.591 0.0544783 126.564C0.392653 126.474 0.72371 126.363 1.04943 126.233C1.37336 126.103 1.67594 125.938 1.95538 125.737C2.23482 125.536 2.48934 125.292 2.71716 125.005C2.94498 124.72 3.13543 124.38 3.29206 123.991C3.37037 123.795 11.0612 101.755 11.0754 101.716C11.127 101.573 11.1893 101.459 11.2694 101.385C11.4527 101.214 15.7191 100.114 16.0484 99.9802C16.383 99.8431 16.7051 100.058 16.771 100.215C16.7834 100.254 24.2553 122.691 24.3586 122.978C24.5526 123.537 24.7839 124.021 25.0509 124.43C25.3179 124.84 25.6098 125.19 25.9284 125.484C26.247 125.776 26.5816 126.007 26.934 126.176C27.2847 126.345 27.6495 126.463 28.0251 126.527L28.0269 126.523ZM7.68299 115.835C7.61714 116.004 7.66875 116.088 7.83784 116.088H15.2688C15.4254 116.088 15.477 116.011 15.4254 115.855C15.4112 115.816 11.6414 104.457 11.6414 104.444C11.6147 104.353 11.3353 104.385 11.3104 104.464C11.2961 104.49 7.82538 115.394 7.68299 115.835Z" fill="white"/>
<path d="M50.0548 107.527C49.9356 107.546 49.7451 107.591 49.4853 107.662C49.2254 107.733 48.9638 107.849 48.6986 108.014C48.4334 108.18 48.202 108.41 48.0008 108.705C47.7997 109.001 47.7018 109.378 47.7018 109.837V127.112C47.7018 127.264 47.2925 127.438 47.1625 127.308C47.1323 127.278 33.5999 111.211 33.591 111.202C33.5216 111.131 33.3365 111.216 33.3365 111.307V124.503C33.3365 124.973 33.4362 125.352 33.6355 125.642C33.8349 125.932 34.068 126.162 34.3332 126.333C34.5984 126.502 34.8601 126.621 35.1199 126.685C35.3798 126.749 35.5703 126.792 35.6895 126.813C35.7785 126.833 35.7447 127.294 35.645 127.294H29.9459C29.8462 127.294 29.8106 126.835 29.9014 126.813C30.0206 126.794 30.2111 126.751 30.4709 126.685C30.7308 126.621 30.9924 126.502 31.2576 126.333C31.5228 126.162 31.7542 125.932 31.9553 125.642C32.1547 125.352 32.2561 124.973 32.2561 124.503V109.837C32.2561 109.378 32.1565 109.001 31.9553 108.705C31.756 108.41 31.5228 108.18 31.2576 108.014C30.9924 107.849 30.7308 107.733 30.4709 107.662C30.2111 107.593 30.0206 107.548 29.9014 107.527C29.8106 107.516 29.8462 107.046 29.9459 107.046H35.8995C36.2092 107.046 36.4549 107.151 36.6346 107.361C36.8251 107.591 46.3313 118.873 46.3527 118.893C46.4328 118.973 46.6232 118.904 46.6232 118.804V109.835C46.6232 109.376 46.5236 108.999 46.3224 108.703C46.1231 108.408 45.8899 108.178 45.6247 108.013C45.3595 107.847 45.0979 107.731 44.838 107.66C44.5782 107.591 44.3877 107.546 44.2685 107.525C44.1795 107.514 44.2133 107.044 44.3147 107.044H50.0139C50.1135 107.044 50.1491 107.514 50.0584 107.525L50.0548 107.527Z" fill="white"/>
<path d="M69.7136 107.333V111.501C69.7136 111.661 69.2936 111.706 69.233 111.546C69.1939 111.457 69.1227 111.304 69.023 111.088C68.9234 110.873 68.7827 110.631 68.603 110.36C68.4232 110.09 68.2025 109.812 67.9426 109.527C67.6828 109.243 67.3784 108.979 67.0278 108.739C66.6772 108.499 66.2856 108.303 65.8513 108.146C65.417 107.991 64.9293 107.913 64.3883 107.913C64.1391 107.913 63.9326 107.95 63.7742 108.025C63.614 108.1 63.4859 108.2 63.3915 108.324C63.2972 108.451 63.2296 108.597 63.1886 108.767C63.1477 108.938 63.1245 109.113 63.1139 109.292V124.5C63.1139 124.97 63.2135 125.349 63.4129 125.639C63.6122 125.929 63.8454 126.158 64.1106 126.329C64.3758 126.498 64.6374 126.618 64.8973 126.682C65.1572 126.746 65.3476 126.789 65.4669 126.81C65.5558 126.829 65.522 127.29 65.4206 127.29H55.8538C55.7541 127.29 55.7185 126.831 55.8093 126.81C55.9285 126.79 56.119 126.748 56.3789 126.682C56.6387 126.618 56.9021 126.498 57.1673 126.329C57.4325 126.158 57.6639 125.929 57.865 125.639C58.0644 125.349 58.1658 124.97 58.1658 124.5C58.1658 124.42 58.173 109.47 58.1587 109.227C58.1427 108.981 58.0964 108.762 58.0163 108.566C57.9362 108.372 57.8081 108.214 57.6337 108.095C57.4592 107.975 57.2101 107.915 56.8915 107.915C56.3522 107.915 55.8609 107.991 55.4213 108.148C54.9817 108.303 54.5883 108.5 54.2448 108.741C53.8995 108.981 53.5969 109.243 53.3371 109.529C53.0772 109.814 52.8565 110.092 52.6767 110.362C52.497 110.633 52.3546 110.875 52.2496 111.09C52.1446 111.305 52.0769 111.457 52.0484 111.548C51.9879 111.708 51.5679 111.663 51.5679 111.503V107.335C51.5679 107.144 51.6729 107.05 51.8829 107.05H69.3986C69.6086 107.05 69.7136 107.144 69.7136 107.335V107.333Z" fill="white"/>
<path d="M80.8519 106.628C81.8611 106.628 82.8204 106.751 83.7317 106.994C84.6412 107.24 85.4831 107.587 86.2591 108.036C87.0334 108.486 87.7311 109.029 88.3505 109.662C88.9699 110.298 89.4949 110.999 89.9257 111.77C90.3564 112.54 90.6874 113.372 90.9224 114.267C91.1573 115.162 91.2748 116.095 91.2748 117.065C91.2748 118.035 91.1466 118.971 90.8921 119.877C90.6376 120.781 90.2763 121.627 89.8117 122.412C89.3472 123.197 88.7848 123.916 88.1244 124.571C87.4641 125.226 86.7326 125.786 85.9281 126.251C85.1218 126.715 84.2568 127.075 83.3259 127.331C82.395 127.586 81.4215 127.714 80.4016 127.714C78.8727 127.714 77.4701 127.443 76.1958 126.904C74.9214 126.365 73.8232 125.624 72.9048 124.685C71.9846 123.745 71.2673 122.643 70.7529 121.378C70.2386 120.114 69.9805 118.75 69.9805 117.291C69.9805 116.321 70.1086 115.383 70.3631 114.479C70.6177 113.575 70.9772 112.727 71.4435 111.937C71.9081 111.147 72.4705 110.426 73.1308 109.769C73.7912 109.114 74.5227 108.554 75.3272 108.089C76.1317 107.624 76.9985 107.265 77.9294 107.009C78.8585 106.754 79.8338 106.626 80.8537 106.626L80.8519 106.628ZM80.6276 126.827C81.4464 126.827 82.1619 126.575 82.7724 126.071C83.3811 125.566 83.8901 124.877 84.2942 124.001C84.7 123.125 85.0008 122.104 85.2019 120.934C85.4012 119.765 85.5027 118.51 85.5027 117.17C85.5027 115.83 85.403 114.587 85.2019 113.413C85.0025 112.238 84.7 111.213 84.2942 110.339C83.8901 109.465 83.3829 108.774 82.7724 108.269C82.1619 107.763 81.4464 107.511 80.6276 107.511C79.8089 107.511 79.0934 107.763 78.4829 108.269C77.8724 108.774 77.3651 109.463 76.9611 110.339C76.5571 111.213 76.2545 112.238 76.0534 113.413C75.854 114.587 75.7544 115.84 75.7544 117.17C75.7544 118.499 75.854 119.763 76.0534 120.934C76.2527 122.104 76.5553 123.125 76.9611 124.001C77.3669 124.875 77.8724 125.566 78.4829 126.071C79.0916 126.577 79.8071 126.827 80.6276 126.827Z" fill="white"/>
<path d="M111.284 107.527C111.165 107.546 110.974 107.591 110.715 107.662C110.455 107.733 110.193 107.849 109.928 108.014C109.663 108.18 109.431 108.41 109.23 108.705C109.031 109.001 108.931 109.378 108.931 109.837V127.112C108.931 127.264 108.522 127.438 108.392 127.308C108.362 127.278 108.214 127.105 107.949 126.79C107.683 126.475 94.8293 111.211 94.8186 111.202C94.7492 111.131 94.5641 111.216 94.5641 111.307V124.503C94.5641 124.973 94.6637 125.352 94.8631 125.642C95.0624 125.932 95.2956 126.162 95.5608 126.333C95.826 126.502 96.0876 126.621 96.3475 126.685C96.6073 126.749 96.7978 126.792 96.917 126.813C97.006 126.833 96.9722 127.294 96.8726 127.294H91.1734C91.0737 127.294 91.0381 126.835 91.1289 126.813C91.2482 126.794 91.4386 126.751 91.6985 126.685C91.9583 126.619 92.22 126.502 92.4852 126.333C92.7504 126.162 92.9818 125.932 93.1829 125.642C93.3822 125.352 93.4837 124.973 93.4837 124.503V109.837C93.4837 109.378 93.384 109.001 93.1829 108.705C92.9835 108.41 92.7504 108.18 92.4852 108.014C92.22 107.849 91.9583 107.733 91.6985 107.662C91.4386 107.593 91.2482 107.548 91.1289 107.527C91.0381 107.516 91.0737 107.046 91.1734 107.046H97.1271C97.4368 107.046 97.6824 107.151 97.8622 107.361C98.0526 107.591 107.559 118.873 107.58 118.893C107.66 118.973 107.851 118.904 107.851 118.804V109.835C107.851 109.376 107.751 108.999 107.55 108.703C107.349 108.408 107.117 108.178 106.852 108.013C106.587 107.847 106.325 107.731 106.066 107.66C105.806 107.591 105.615 107.546 105.496 107.525C105.407 107.514 105.441 107.044 105.542 107.044H111.241C111.341 107.044 111.377 107.514 111.286 107.525L111.284 107.527Z" fill="white"/>
<path d="M122.716 126.813C122.807 126.833 122.772 127.294 122.672 127.294H113.105C113.005 127.294 112.97 126.834 113.061 126.813C113.18 126.794 113.37 126.751 113.63 126.685C113.89 126.621 114.152 126.502 114.417 126.333C114.682 126.162 114.913 125.932 115.115 125.642C115.314 125.352 115.415 124.973 115.415 124.503V109.837C115.415 109.378 115.316 109 115.115 108.705C114.915 108.409 114.682 108.18 114.417 108.014C114.152 107.849 113.89 107.733 113.63 107.662C113.37 107.592 113.18 107.548 113.061 107.526C112.97 107.516 113.005 107.046 113.105 107.046H122.672C122.772 107.046 122.807 107.516 122.716 107.526C122.597 107.546 122.407 107.591 122.147 107.662C121.887 107.733 121.623 107.849 121.36 108.014C121.095 108.18 120.862 108.409 120.662 108.705C120.463 109 120.362 109.378 120.362 109.837V124.503C120.362 124.973 120.461 125.352 120.662 125.642C120.862 125.932 121.095 126.162 121.36 126.333C121.625 126.502 121.887 126.621 122.147 126.685C122.407 126.749 122.597 126.792 122.716 126.813Z" fill="white"/>
<path d="M133.472 106.628C134.481 106.628 135.441 106.751 136.352 106.994C137.261 107.24 138.103 107.587 138.879 108.036C139.653 108.486 140.351 109.029 140.971 109.662C141.59 110.298 142.115 110.999 142.546 111.77C142.976 112.54 143.308 113.372 143.542 114.267C143.777 115.162 143.895 116.095 143.895 117.065C143.895 118.035 143.767 118.971 143.512 119.877C143.258 120.781 142.896 121.627 142.432 122.412C141.967 123.197 141.405 123.916 140.745 124.571C140.084 125.226 139.353 125.786 138.548 126.251C137.742 126.715 136.877 127.075 135.946 127.331C135.015 127.586 134.042 127.714 133.022 127.714C131.493 127.714 130.09 127.443 128.816 126.904C127.541 126.365 126.443 125.624 125.525 124.685C124.605 123.745 123.887 122.643 123.373 121.378C122.859 120.114 122.601 118.75 122.601 117.291C122.601 116.321 122.729 115.383 122.983 114.479C123.238 113.575 123.597 112.727 124.064 111.937C124.528 111.147 125.091 110.426 125.751 109.769C126.411 109.114 127.143 108.554 127.947 108.089C128.752 107.624 129.619 107.265 130.549 107.009C131.479 106.754 132.454 106.626 133.474 106.626L133.472 106.628ZM133.248 126.827C134.066 126.827 134.782 126.575 135.392 126.071C136.001 125.566 136.51 124.877 136.914 124.001C137.32 123.125 137.621 122.104 137.822 120.934C138.021 119.765 138.123 118.51 138.123 117.17C138.123 115.83 138.023 114.587 137.822 113.413C137.623 112.238 137.32 111.213 136.914 110.339C136.51 109.465 136.003 108.774 135.392 108.269C134.782 107.763 134.066 107.511 133.248 107.511C132.429 107.511 131.714 107.763 131.103 108.269C130.493 108.774 129.985 109.463 129.581 110.339C129.177 111.213 128.875 112.238 128.673 113.413C128.472 114.587 128.374 115.84 128.374 117.17C128.374 118.499 128.474 119.763 128.673 120.934C128.873 122.105 129.175 123.125 129.581 124.001C129.987 124.875 130.493 125.566 131.103 126.071C131.712 126.577 132.427 126.827 133.248 126.827Z" fill="white"/>
<path d="M154.256 114.157C154.256 112.895 154.425 111.676 154.763 110.499C155.101 109.323 155.582 108.221 156.206 107.194C156.831 106.167 157.582 105.227 158.46 104.375C159.337 103.524 160.309 102.794 161.375 102.191C162.441 101.586 163.591 101.118 164.828 100.786C166.063 100.454 167.35 100.288 168.69 100.288C169.794 100.288 170.796 100.375 171.693 100.552C172.59 100.726 173.364 100.922 174.014 101.137C174.663 101.352 175.178 101.554 175.555 101.74C175.932 101.929 176.141 102.043 176.18 102.082C176.335 102.2 176.413 102.335 176.413 102.492V106.589C176.413 106.68 175.847 106.763 175.81 106.687C175.562 106.103 175.256 105.498 174.893 104.873C174.528 104.248 174.067 103.682 173.508 103.177C172.949 102.67 172.286 102.253 171.518 101.927C170.751 101.602 169.847 101.44 168.808 101.44C167.546 101.44 166.471 101.767 165.579 102.426C164.687 103.082 163.959 103.98 163.393 105.117C162.827 106.254 162.414 107.587 162.155 109.116C161.895 110.643 161.765 112.274 161.765 114.002C161.765 115.73 161.895 117.377 162.155 118.898C162.414 120.42 162.808 121.75 163.335 122.887C163.861 124.024 164.522 124.921 165.314 125.578C166.106 126.235 167.037 126.562 168.103 126.562C169.103 126.562 169.888 126.347 170.452 125.92C171.018 125.491 171.44 124.934 171.721 124.252C172.001 123.571 172.173 122.812 172.237 121.981C172.302 121.148 172.335 120.329 172.335 119.523V117.982C172.335 117.396 172.205 116.916 171.946 116.538C171.686 116.161 171.383 115.858 171.038 115.631C170.693 115.403 170.351 115.244 170.014 115.154C169.676 115.063 169.429 115.004 169.272 114.977C169.155 114.965 169.201 114.353 169.331 114.353H178.147C178.341 114.353 178.771 114.776 178.771 114.956V124.884C178.771 125.092 178.732 125.242 178.654 125.333C178.576 125.423 178.465 125.495 178.321 125.548C177.321 125.847 176.406 126.126 175.58 126.386C174.754 126.646 173.941 126.874 173.142 127.068C172.343 127.264 171.517 127.419 170.664 127.536C169.812 127.654 168.859 127.711 167.807 127.711C165.818 127.711 163.995 127.36 162.336 126.657C160.677 125.956 159.252 124.993 158.056 123.77C156.859 122.547 155.925 121.114 155.256 119.468C154.587 117.823 154.252 116.051 154.252 114.153L154.256 114.157Z" fill="white"/>
<path d="M200.304 126.719C200.384 126.739 200.29 127.212 200.199 127.212H190.808C190.739 127.212 190.678 126.764 190.778 126.733C190.878 126.703 191.054 126.648 191.308 126.57C191.563 126.489 191.807 126.358 192.042 126.173C192.275 125.988 192.458 125.742 192.586 125.432C192.714 125.123 192.702 124.729 192.542 124.25C192.492 124.12 191.086 119.865 191.077 119.824C191.047 119.735 190.992 119.69 190.913 119.69H184.468C184.379 119.69 184.319 119.73 184.289 119.81C184.249 119.929 182.774 124.779 182.763 124.848C182.683 125.217 182.701 125.516 182.817 125.745C182.931 125.975 183.089 126.157 183.288 126.29C183.488 126.425 183.701 126.521 183.931 126.582C184.16 126.643 184.349 126.692 184.499 126.732C184.589 126.751 184.509 127.21 184.44 127.21H178.908C178.828 127.21 178.783 126.767 178.864 126.746C179.122 126.676 179.376 126.591 179.625 126.491C179.874 126.392 180.106 126.265 180.319 126.11C180.535 125.956 180.729 125.769 180.903 125.55C181.078 125.331 181.224 125.071 181.345 124.772C181.405 124.622 187.3 107.726 187.311 107.696C187.35 107.587 187.4 107.502 187.46 107.441C187.521 107.381 191.415 106.265 191.49 106.306C191.565 106.345 191.627 106.425 191.677 106.544C191.686 106.575 197.819 124.793 198.024 125.107C198.228 125.42 198.453 125.69 198.697 125.915C198.94 126.139 199.197 126.317 199.467 126.445C199.736 126.575 200.015 126.664 200.304 126.714V126.719ZM184.709 118.525C184.659 118.654 184.698 118.719 184.828 118.719H190.525C190.644 118.719 190.685 118.66 190.644 118.539C190.634 118.509 187.743 109.801 187.743 109.793C187.724 109.723 187.681 109.693 187.617 109.702C187.551 109.712 187.51 109.746 187.491 109.807C187.48 109.828 184.819 118.186 184.71 118.525H184.709Z" fill="white"/>
<path d="M211.638 126.733C211.729 126.753 211.693 127.212 211.594 127.212H202.055C201.956 127.212 201.92 126.753 202.011 126.733C202.13 126.714 202.319 126.671 202.579 126.607C202.838 126.543 203.1 126.425 203.363 126.256C203.627 126.087 203.86 125.858 204.059 125.567C204.259 125.279 204.358 124.9 204.358 124.432V109.808C204.358 109.349 204.259 108.974 204.059 108.68C203.86 108.386 203.629 108.157 203.363 107.991C203.098 107.826 202.838 107.71 202.579 107.641C202.319 107.571 202.13 107.527 202.011 107.507C201.92 107.496 201.956 107.028 202.055 107.028H211.594C211.693 107.028 211.729 107.496 211.638 107.507C211.519 107.527 211.328 107.571 211.07 107.641C210.81 107.71 210.549 107.827 210.285 107.991C210.022 108.155 209.789 108.386 209.589 108.68C209.39 108.974 209.29 109.349 209.29 109.808V124.432C209.29 124.9 209.39 125.279 209.589 125.567C209.789 125.856 210.02 126.085 210.285 126.256C210.549 126.425 210.81 126.543 211.07 126.607C211.328 126.671 211.519 126.714 211.638 126.733Z" fill="white"/>
<path d="M231.236 107.311V111.467C231.236 111.627 230.818 111.672 230.757 111.511C230.718 111.422 230.647 111.269 230.547 111.056C230.448 110.842 230.307 110.6 230.129 110.331C229.949 110.063 229.73 109.785 229.471 109.502C229.213 109.217 228.908 108.956 228.559 108.717C228.21 108.479 227.819 108.281 227.386 108.126C226.952 107.971 226.466 107.895 225.929 107.895C225.679 107.895 225.475 107.932 225.316 108.007C225.156 108.082 225.03 108.181 224.936 108.306C224.841 108.431 224.774 108.578 224.734 108.747C224.695 108.916 224.67 109.091 224.66 109.271V124.432C224.66 124.9 224.759 125.279 224.959 125.567C225.158 125.855 225.389 126.085 225.655 126.256C225.918 126.425 226.18 126.542 226.439 126.607C226.698 126.671 226.888 126.713 227.007 126.733C227.096 126.752 227.062 127.212 226.963 127.212H217.424C217.325 127.212 217.289 126.752 217.38 126.733C217.499 126.713 217.69 126.671 217.948 126.607C218.208 126.542 218.469 126.425 218.733 126.256C218.996 126.087 219.227 125.857 219.427 125.567C219.626 125.277 219.726 124.9 219.726 124.432C219.726 124.351 219.733 109.447 219.719 109.203C219.704 108.959 219.656 108.74 219.576 108.544C219.496 108.35 219.368 108.194 219.195 108.073C219.021 107.954 218.774 107.893 218.455 107.893C217.917 107.893 217.428 107.97 216.99 108.124C216.551 108.279 216.161 108.475 215.817 108.715C215.474 108.956 215.171 109.217 214.913 109.5C214.653 109.783 214.434 110.061 214.255 110.33C214.075 110.598 213.932 110.84 213.827 111.054C213.722 111.269 213.656 111.421 213.626 111.51C213.566 111.67 213.147 111.625 213.147 111.465V107.309C213.147 107.121 213.252 107.024 213.462 107.024H230.927C231.137 107.024 231.24 107.119 231.24 107.309L231.236 107.311Z" fill="white"/>
<path d="M250.939 127.212H241.548C241.479 127.212 241.419 126.763 241.518 126.733C241.618 126.703 241.794 126.648 242.049 126.569C242.303 126.489 242.547 126.358 242.782 126.173C243.015 125.987 243.198 125.742 243.327 125.432C243.456 125.122 243.442 124.729 243.282 124.25C243.232 124.12 241.826 119.865 241.817 119.824C241.787 119.735 241.732 119.69 241.653 119.69H235.209C235.12 119.69 235.059 119.729 235.029 119.81C234.99 119.929 233.514 124.779 233.503 124.848C233.423 125.217 233.441 125.516 233.557 125.745C233.671 125.975 233.829 126.157 234.029 126.29C234.228 126.425 234.441 126.521 234.671 126.582C234.901 126.642 235.089 126.692 235.239 126.731C235.33 126.751 235.249 127.21 235.18 127.21H229.648C229.568 127.21 229.524 126.767 229.604 126.746C229.862 126.676 230.116 126.591 230.366 126.491C230.615 126.391 230.846 126.265 231.06 126.11C231.275 125.955 231.469 125.769 231.643 125.55C231.818 125.331 231.964 125.071 232.085 124.772C232.145 124.622 238.04 107.726 238.051 107.696C238.09 107.587 238.144 107.505 238.201 107.441C238.327 107.301 242.155 106.265 242.23 106.306C242.305 106.345 242.367 106.425 242.417 106.544C242.426 106.574 248.154 123.773 248.234 123.994C248.383 124.423 248.559 124.793 248.764 125.108C248.969 125.421 249.193 125.692 249.437 125.916C249.681 126.141 249.937 126.319 250.208 126.447C250.476 126.577 250.756 126.666 251.044 126.715C251.124 126.735 251.03 127.208 250.939 127.208V127.212ZM235.568 118.718H241.265C241.385 118.718 241.426 118.66 241.385 118.539C241.374 118.508 241.328 118.361 241.242 118.097C241.157 117.834 238.484 109.801 238.484 109.792C238.464 109.723 238.421 109.693 238.357 109.702C238.291 109.712 238.25 109.746 238.231 109.807C238.22 109.828 235.559 118.186 235.451 118.524C235.401 118.654 235.44 118.718 235.57 118.718H235.568ZM238.14 106.279C238.19 106.34 238.27 106.343 238.38 106.293C238.779 106.113 239.236 105.882 239.756 105.597C240.274 105.313 240.785 104.999 241.289 104.656C241.792 104.312 242.259 103.953 242.686 103.579C243.115 103.205 243.439 102.844 243.658 102.495C243.757 102.337 243.843 102.151 243.912 101.941C243.982 101.731 244.014 101.53 244.008 101.336C244.003 101.142 243.953 100.961 243.859 100.79C243.764 100.621 243.611 100.491 243.403 100.402C243.204 100.311 243.012 100.274 242.828 100.29C242.645 100.306 242.47 100.352 242.305 100.432C242.141 100.512 241.988 100.619 241.847 100.754C241.709 100.888 241.584 101.03 241.474 101.18C241.454 101.201 241.367 101.322 241.212 101.546C241.057 101.771 240.869 102.048 240.644 102.376C240.42 102.705 240.176 103.065 239.911 103.453C239.648 103.841 239.395 104.213 239.156 104.567C238.916 104.921 238.706 105.232 238.521 105.501C238.336 105.77 238.215 105.95 238.154 106.039C238.094 106.138 238.09 106.218 238.14 106.279Z" fill="white"/>
<path d="M272.844 107.505C272.725 107.525 272.535 107.569 272.276 107.639C272.017 107.708 271.755 107.826 271.492 107.989C271.228 108.153 270.995 108.385 270.796 108.678C270.596 108.972 270.497 109.347 270.497 109.807V127.032C270.497 127.182 270.087 127.356 269.959 127.226C269.929 127.196 269.781 127.025 269.518 126.71C269.254 126.395 256.437 111.177 256.427 111.168C256.357 111.099 256.297 111.076 256.247 111.101C256.197 111.126 256.172 111.183 256.172 111.273V124.432C256.172 124.9 256.272 125.279 256.471 125.567C256.671 125.856 256.902 126.085 257.167 126.256C257.431 126.425 257.694 126.543 257.952 126.607C258.212 126.671 258.401 126.714 258.52 126.733C258.609 126.753 258.575 127.212 258.475 127.212H252.794C252.694 127.212 252.659 126.753 252.75 126.733C252.869 126.714 253.057 126.671 253.317 126.607C253.577 126.543 253.839 126.425 254.102 126.256C254.366 126.087 254.599 125.858 254.798 125.567C254.997 125.279 255.097 124.9 255.097 124.432V109.808C255.097 109.349 254.997 108.974 254.798 108.68C254.599 108.386 254.367 108.157 254.102 107.991C253.839 107.827 253.577 107.71 253.317 107.641C253.057 107.571 252.869 107.527 252.75 107.507C252.659 107.496 252.694 107.028 252.794 107.028H258.73C259.04 107.028 259.283 107.133 259.463 107.343C259.652 107.573 268.512 118.088 268.756 118.379C269 118.667 269.131 118.822 269.153 118.841C269.233 118.921 269.423 118.852 269.423 118.752V109.81C269.423 109.351 269.324 108.976 269.124 108.682C268.925 108.388 268.694 108.159 268.428 107.993C268.163 107.827 267.903 107.712 267.643 107.642C267.384 107.573 267.195 107.528 267.076 107.509C266.987 107.498 267.02 107.03 267.12 107.03H272.801C272.901 107.03 272.935 107.498 272.846 107.509L272.844 107.505Z" fill="white"/>
<path d="M179.281 74.1848L176.868 70.0022L176.784 69.8651L172.415 62.29L167.956 54.5725L163.503 46.855L161.075 42.6474L136.453 0L111.83 42.6474L109.402 46.855L104.944 54.5725L100.49 62.29L96.1154 69.8651L96.0371 70.0022L92.6803 75.817L87.2036 85.2983H185.698L179.283 74.1848H179.281ZM163.389 77.5808L158.911 70.0004L158.833 69.8633L154.354 62.2882H136.396L131.921 69.8633H149.955L150.038 70.0004L154.516 77.5808H118.387L122.865 70.0004L122.949 69.8633L125.141 66.147L127.421 62.2882L131.978 54.5707L136.451 46.9903L140.924 54.5707H149.796L145.24 46.8532L136.451 31.9646L127.656 46.8532L123.1 54.5707L120.701 58.6306L118.544 62.2882L114.065 69.8633L113.987 70.0004L109.509 77.5808H100.533L104.908 70.0004L104.992 69.8633L109.361 62.2882L113.814 54.5707L116.262 50.3329L118.273 46.8532L136.451 15.3745L154.623 46.8532L156.634 50.3329L159.082 54.5707L163.535 62.2882L167.91 69.8633L167.988 70.0004L172.363 77.5808H163.387H163.389Z" fill="white"/>
<path d="M86.3781 144.972H79.8318L77.1958 152.216H76.062L83.1049 132.871L90.1372 152.216H89.0141L86.3799 144.972H86.3781ZM85.9883 143.908L83.1049 135.978L80.2216 143.908H85.9883Z" fill="white"/>
<path d="M92.499 133.309H93.5616V142.244C93.7592 141.977 93.9834 141.715 94.2362 141.464C95.5052 140.197 97.0323 139.561 98.8211 139.561C100.61 139.561 102.148 140.195 103.411 141.464C104.675 142.733 105.309 144.265 105.309 146.061C105.309 147.857 104.677 149.379 103.411 150.646C102.148 151.915 100.617 152.549 98.8211 152.549C97.0252 152.549 95.5052 151.915 94.2362 150.646C93.9834 150.395 93.7592 150.135 93.5616 149.867V152.218H92.499V133.31V133.309ZM93.5616 144.949V147.17C93.7663 148.179 94.254 149.069 95.0264 149.842C96.0748 150.89 97.3385 151.413 98.8193 151.413C100.3 151.413 101.566 150.892 102.612 149.847C103.661 148.804 104.184 147.54 104.184 146.06C104.184 144.579 103.661 143.315 102.612 142.267C101.564 141.218 100.3 140.695 98.8193 140.695C97.3385 140.695 96.073 141.22 95.0264 142.267C94.254 143.039 93.7663 143.933 93.5616 144.949Z" fill="white"/>
<path d="M114.338 139.561C116.134 139.561 117.665 140.195 118.928 141.464C120.192 142.733 120.826 144.265 120.826 146.061C120.826 147.857 120.194 149.379 118.928 150.646C117.665 151.915 116.134 152.549 114.338 152.549C112.542 152.549 111.021 151.915 109.753 150.646C108.484 149.379 107.851 147.85 107.851 146.061C107.851 144.272 108.484 142.733 109.753 141.464C111.022 140.196 112.549 139.561 114.338 139.561ZM110.545 142.266C109.497 143.315 108.974 144.578 108.974 146.059C108.974 147.54 109.497 148.804 110.545 149.847C111.594 150.89 112.857 151.413 114.338 151.413C115.819 151.413 117.085 150.892 118.131 149.847C119.179 148.804 119.703 147.54 119.703 146.059C119.703 144.578 119.179 143.315 118.131 142.266C117.083 141.218 115.819 140.695 114.338 140.695C112.857 140.695 111.592 141.22 110.545 142.266Z" fill="white"/>
<path d="M135.09 149.913C134.892 150.166 134.681 150.41 134.453 150.646C133.184 151.915 131.651 152.549 129.855 152.549C128.059 152.549 126.538 151.915 125.27 150.646C124.001 149.379 123.368 147.85 123.368 146.061C123.368 144.273 124.001 142.735 125.27 141.471C126.538 140.207 128.067 139.574 129.855 139.574C131.644 139.574 133.184 140.204 134.453 141.464C134.697 141.717 134.921 141.98 135.125 142.256V140.613H136.19V149.63C136.19 151.371 135.57 152.86 134.335 154.097C133.066 155.365 131.539 156 129.75 156C127.962 156 126.422 155.367 125.153 154.097C124.893 153.838 124.4 153.297 124.217 152.88H125.578C125.696 153.022 125.822 153.159 125.957 153.293C127.006 154.341 128.269 154.865 129.75 154.865C131.231 154.865 132.484 154.34 133.532 153.293C134.486 152.339 135.006 151.214 135.092 149.913H135.09ZM135.113 144.951C134.908 143.934 134.421 143.039 133.648 142.268C132.6 141.22 131.336 140.697 129.855 140.697C128.374 140.697 127.109 141.222 126.062 142.268C125.014 143.317 124.491 144.581 124.491 146.061C124.491 147.542 125.014 148.808 126.062 149.854C127.111 150.903 128.374 151.426 129.855 151.426C131.336 151.426 132.602 150.901 133.648 149.854C134.412 149.091 134.901 148.204 135.113 147.195V144.951Z" fill="white"/>
<path d="M152.13 152.218H151.065V149.854C150.861 150.13 150.636 150.393 150.393 150.646C149.124 151.915 147.591 152.549 145.795 152.549C143.999 152.549 142.478 151.915 141.21 150.646C139.941 149.379 139.308 147.85 139.308 146.061C139.308 144.272 139.941 142.733 141.21 141.464C142.478 140.196 144.006 139.561 145.795 139.561C147.584 139.561 149.124 140.195 150.393 141.464C150.636 141.716 150.861 141.98 151.065 142.256V140.613H152.13V152.218ZM151.065 147.113V145.009C150.868 143.97 150.377 143.055 149.588 142.268C148.54 141.22 147.276 140.697 145.795 140.697C144.314 140.697 143.049 141.222 142.002 142.268C140.954 143.317 140.431 144.58 140.431 146.061C140.431 147.542 140.954 148.806 142.002 149.849C143.051 150.892 144.314 151.415 145.795 151.415C147.276 151.415 148.542 150.892 149.588 149.843C150.377 149.055 150.868 148.145 151.065 147.113Z" fill="white"/>
<path d="M168.202 152.218H167.138V149.854C166.933 150.13 166.709 150.394 166.465 150.646C165.196 151.915 163.663 152.549 161.868 152.549C160.072 152.549 158.55 151.915 157.283 150.646C156.014 149.379 155.38 147.85 155.38 146.062C155.38 144.273 156.014 142.733 157.283 141.464C158.55 140.197 160.079 139.561 161.868 139.561C163.656 139.561 165.196 140.195 166.465 141.464C166.709 141.717 166.933 141.98 167.138 142.256V133.311H168.202V152.218ZM167.138 147.113V145.01C166.94 143.97 166.449 143.055 165.66 142.269C164.612 141.22 163.348 140.697 161.868 140.697C160.387 140.697 159.121 141.222 158.075 142.269C157.026 143.317 156.503 144.581 156.503 146.062C156.503 147.542 157.026 148.806 158.075 149.849C159.123 150.892 160.387 151.415 161.868 151.415C163.348 151.415 164.614 150.892 165.66 149.844C166.449 149.055 166.94 148.146 167.138 147.113Z" fill="white"/>
<path d="M177.525 139.561C179.321 139.561 180.852 140.195 182.115 141.464C183.379 142.733 184.013 144.265 184.013 146.061C184.013 147.857 183.381 149.379 182.115 150.646C180.852 151.915 179.321 152.549 177.525 152.549C175.729 152.549 174.208 151.915 172.94 150.646C171.671 149.379 171.038 147.85 171.038 146.061C171.038 144.272 171.671 142.733 172.94 141.464C174.209 140.196 175.736 139.561 177.525 139.561ZM173.732 142.266C172.684 143.315 172.161 144.578 172.161 146.059C172.161 147.54 172.684 148.804 173.732 149.847C174.781 150.89 176.044 151.413 177.525 151.413C179.006 151.413 180.272 150.892 181.318 149.847C182.366 148.804 182.89 147.54 182.89 146.059C182.89 144.578 182.366 143.315 181.318 142.266C180.27 141.218 179.006 140.695 177.525 140.695C176.044 140.695 174.779 141.22 173.732 142.266Z" fill="white"/>
<path d="M186.081 143.101C186.081 143.053 186.081 143.005 186.09 142.957C186.158 142.323 186.633 141.727 186.805 141.53C186.811 141.524 186.814 141.524 186.814 141.521C186.834 141.501 186.854 141.482 186.871 141.464C188.135 140.195 189.667 139.561 191.465 139.561C193.263 139.561 194.776 140.195 196.043 141.464C196.322 141.743 196.566 142.031 196.783 142.334L196.778 142.339L195.913 143.046C195.726 142.772 195.505 142.509 195.254 142.263C194.466 141.474 193.553 140.985 192.521 140.793C192.179 140.73 191.828 140.697 191.463 140.697C191.209 140.697 190.96 140.711 190.719 140.745C190.315 140.793 189.936 140.889 189.571 141.028C189.47 141.061 189.374 141.099 189.283 141.143C189.187 141.186 189.091 141.225 189 141.273C188.404 141.562 187.736 142.048 187.414 142.537C187.389 142.557 187.375 142.576 187.361 142.594C187.29 142.704 187.236 142.829 187.217 142.964C187.211 143.012 187.208 143.055 187.208 143.103C187.208 143.165 187.213 143.228 187.227 143.286C187.284 143.575 187.476 143.806 187.731 143.925C187.74 143.931 187.754 143.94 187.765 143.945C187.98 144.084 195.333 147.024 195.562 147.117H195.568V147.122L195.577 147.127C195.625 147.147 195.673 147.17 195.715 147.19C195.764 147.213 195.812 147.243 195.86 147.277C196.047 147.396 196.216 147.546 196.346 147.695C196.379 147.734 196.408 147.766 196.436 147.805C196.465 147.839 196.49 147.873 196.508 147.907C196.714 148.224 196.835 148.603 196.835 149.007C196.835 149.055 196.83 149.108 196.826 149.156C196.758 149.79 196.283 150.386 196.111 150.584C196.105 150.589 196.105 150.593 196.102 150.593L196.045 150.65C194.776 151.919 193.254 152.552 191.467 152.552C189.68 152.552 188.137 151.919 186.873 150.65C186.594 150.37 186.35 150.082 186.133 149.779L186.138 149.774L187.003 149.067C187.19 149.341 187.411 149.605 187.662 149.85C188.45 150.639 189.363 151.128 190.395 151.321C190.737 151.383 191.097 151.417 191.467 151.417C191.716 151.417 191.962 151.402 192.197 151.369C192.601 151.321 192.98 151.225 193.345 151.086C193.441 151.047 193.537 151.009 193.633 150.97C193.729 150.931 193.82 150.883 193.916 150.84C194.512 150.552 195.18 150.066 195.502 149.576C195.525 149.557 195.541 149.537 195.555 149.519C195.626 149.409 195.675 149.284 195.699 149.149C195.705 149.101 195.708 149.053 195.708 149.005C195.708 148.943 195.699 148.886 195.689 148.827C195.632 148.539 195.44 148.307 195.185 148.188C195.176 148.183 195.162 148.174 195.151 148.168C194.936 148.03 187.583 145.089 187.354 144.997L187.348 144.991L187.339 144.986C187.291 144.966 187.243 144.943 187.201 144.924C187.147 144.895 187.099 144.87 187.056 144.837C186.873 144.717 186.7 144.568 186.571 144.418C186.537 144.379 186.508 144.347 186.48 144.308C186.451 144.279 186.432 144.246 186.409 144.212C186.38 144.169 186.355 144.13 186.337 144.087C186.295 144 186.25 143.915 186.218 143.827C186.131 143.601 186.083 143.356 186.083 143.101H186.081Z" fill="white"/>
</svg>
